{
	"asset":{
		"generator":"Khronos glTF Blender I/O v4.2.60",
		"version":"2.0"
	},
	"scene":0,
	"scenes":[
		{
			"name":"Scene",
			"nodes":[
				0,
				1,
				2,
				3,
				4,
				5
			]
		}
	],
	"nodes":[
		{
			"mesh":0,
			"name":"Cylinder",
			"scale":[
				1.0362485647201538,
				1.0362485647201538,
				1.0362485647201538
			],
			"translation":[
				0,
				1,
				0
			]
		},
		{
			"mesh":1,
			"name":"Cylinder.006",
			"rotation":[
				0,
				-0.004544863943010569,
				0.02138187550008297,
				0.9997610449790955
			],
			"scale":[
				0.032196152955293655,
				0.03219614550471306,
				0.032196156680583954
			],
			"translation":[
				-0.013306945562362671,
				1.162548303604126,
				-0.006533486768603325
			]
		},
		{
			"mesh":2,
			"name":"Cylinder.007",
			"rotation":[
				0.020817022770643234,
				-0.9130610823631287,
				0.060651976615190506,
				0.4027498662471771
			],
			"scale":[
				0.03612099215388298,
				0.03376151993870735,
				0.03612101078033447
			],
			"translation":[
				-0.01555982232093811,
				1.1633257865905762,
				-0.011821852996945381
			]
		},
		{
			"mesh":3,
			"name":"Cylinder.008",
			"rotation":[
				-0.038101427257061005,
				0.8038938641548157,
				-0.018372105434536934,
				0.5932667851448059
			],
			"scale":[
				0.03997056931257248,
				0.0408347062766552,
				0.040115173906087875
			],
			"translation":[
				-0.011335046961903572,
				1.186952829360962,
				-0.01100064069032669
			]
		},
		{
			"mesh":4,
			"name":"Cylinder.009",
			"rotation":[
				0,
				-0.004544863477349281,
				0.02138187550008297,
				0.9997610449790955
			],
			"scale":[
				0.033047303557395935,
				0.03304731100797653,
				0.03304731100797653
			],
			"translation":[
				-0.013000309467315674,
				1.160871982574463,
				-0.005929000675678253
			]
		},
		{
			"mesh":5,
			"name":"Cylinder.010",
			"rotation":[
				0.010984383523464203,
				-0.4348071813583374,
				0.06561440974473953,
				0.8980629444122314
			],
			"scale":[
				0.04167444258928299,
				0.0425754077732563,
				0.04182519391179085
			],
			"translation":[
				-0.020028799772262573,
				1.1865653991699219,
				-0.008038169704377651
			]
		}
	],
	"meshes":[
		{
			"name":"Cylinder",
			"primitives":[
				{
					"attributes":{
						"POSITION":0,
						"NORMAL":1,
						"TEXCOORD_0":2
					},
					"indices":3
				}
			]
		},
		{
			"name":"Cylinder.001",
			"primitives":[
				{
					"attributes":{
						"POSITION":4,
						"NORMAL":5,
						"TEXCOORD_0":6
					},
					"indices":7
				}
			]
		},
		{
			"name":"Cylinder.002",
			"primitives":[
				{
					"attributes":{
						"POSITION":8,
						"NORMAL":9,
						"TEXCOORD_0":10
					},
					"indices":7
				}
			]
		},
		{
			"name":"Cylinder.013",
			"primitives":[
				{
					"attributes":{
						"POSITION":11,
						"NORMAL":12,
						"TEXCOORD_0":13
					},
					"indices":14
				}
			]
		},
		{
			"name":"Cylinder.014",
			"primitives":[
				{
					"attributes":{
						"POSITION":15,
						"NORMAL":16,
						"TEXCOORD_0":17
					},
					"indices":18
				}
			]
		},
		{
			"name":"Cylinder.015",
			"primitives":[
				{
					"attributes":{
						"POSITION":19,
						"NORMAL":20,
						"TEXCOORD_0":21
					},
					"indices":7
				}
			]
		}
	],
	"accessors":[
		{
			"bufferView":0,
			"componentType":5126,
			"count":920,
			"max":[
				0.9974257946014404,
				0.3865724802017212,
				0.9974257946014404
			],
			"min":[
				-0.9974257946014404,
				-1,
				-0.9974257946014404
			],
			"type":"VEC3"
		},
		{
			"bufferView":1,
			"componentType":5126,
			"count":920,
			"type":"VEC3"
		},
		{
			"bufferView":2,
			"componentType":5126,
			"count":920,
			"type":"VEC2"
		},
		{
			"bufferView":3,
			"componentType":5123,
			"count":1434,
			"type":"SCALAR"
		},
		{
			"bufferView":4,
			"componentType":5126,
			"count":94,
			"max":[
				0.7458961009979248,
				1.6776431798934937,
				0.7460126876831055
			],
			"min":[
				-0.7458961009979248,
				-1.36248779296875,
				-0.5273133516311646
			],
			"type":"VEC3"
		},
		{
			"bufferView":5,
			"componentType":5126,
			"count":94,
			"type":"VEC3"
		},
		{
			"bufferView":6,
			"componentType":5126,
			"count":94,
			"type":"VEC2"
		},
		{
			"bufferView":7,
			"componentType":5123,
			"count":162,
			"type":"SCALAR"
		},
		{
			"bufferView":8,
			"componentType":5126,
			"count":94,
			"max":[
				0.7458961009979248,
				1.6776431798934937,
				0.7460126876831055
			],
			"min":[
				-0.7458961009979248,
				-1.36248779296875,
				-0.5273133516311646
			],
			"type":"VEC3"
		},
		{
			"bufferView":9,
			"componentType":5126,
			"count":94,
			"type":"VEC3"
		},
		{
			"bufferView":10,
			"componentType":5126,
			"count":94,
			"type":"VEC2"
		},
		{
			"bufferView":11,
			"componentType":5126,
			"count":94,
			"max":[
				0.7009041905403137,
				1.6776431798934937,
				0.7460126876831055
			],
			"min":[
				-0.7009041905403137,
				-1.36248779296875,
				-0.5273133516311646
			],
			"type":"VEC3"
		},
		{
			"bufferView":12,
			"componentType":5126,
			"count":94,
			"type":"VEC3"
		},
		{
			"bufferView":13,
			"componentType":5126,
			"count":94,
			"type":"VEC2"
		},
		{
			"bufferView":14,
			"componentType":5123,
			"count":162,
			"type":"SCALAR"
		},
		{
			"bufferView":15,
			"componentType":5126,
			"count":128,
			"max":[
				0.49428877234458923,
				0.9941755533218384,
				0.4988275170326233
			],
			"min":[
				-0.5057111978530884,
				-0.9861800074577332,
				-0.5011724829673767
			],
			"type":"VEC3"
		},
		{
			"bufferView":16,
			"componentType":5126,
			"count":128,
			"type":"VEC3"
		},
		{
			"bufferView":17,
			"componentType":5126,
			"count":128,
			"type":"VEC2"
		},
		{
			"bufferView":18,
			"componentType":5123,
			"count":192,
			"type":"SCALAR"
		},
		{
			"bufferView":19,
			"componentType":5126,
			"count":94,
			"max":[
				0.7458961009979248,
				1.6776431798934937,
				0.7460126876831055
			],
			"min":[
				-0.7458961009979248,
				-1.36248779296875,
				-0.5273133516311646
			],
			"type":"VEC3"
		},
		{
			"bufferView":20,
			"componentType":5126,
			"count":94,
			"type":"VEC3"
		},
		{
			"bufferView":21,
			"componentType":5126,
			"count":94,
			"type":"VEC2"
		}
	],
	"bufferViews":[
		{
			"buffer":0,
			"byteLength":11040,
			"byteOffset":0,
			"target":34962
		},
		{
			"buffer":0,
			"byteLength":11040,
			"byteOffset":11040,
			"target":34962
		},
		{
			"buffer":0,
			"byteLength":7360,
			"byteOffset":22080,
			"target":34962
		},
		{
			"buffer":0,
			"byteLength":2868,
			"byteOffset":29440,
			"target":34963
		},
		{
			"buffer":0,
			"byteLength":1128,
			"byteOffset":32308,
			"target":34962
		},
		{
			"buffer":0,
			"byteLength":1128,
			"byteOffset":33436,
			"target":34962
		},
		{
			"buffer":0,
			"byteLength":752,
			"byteOffset":34564,
			"target":34962
		},
		{
			"buffer":0,
			"byteLength":324,
			"byteOffset":35316,
			"target":34963
		},
		{
			"buffer":0,
			"byteLength":1128,
			"byteOffset":35640,
			"target":34962
		},
		{
			"buffer":0,
			"byteLength":1128,
			"byteOffset":36768,
			"target":34962
		},
		{
			"buffer":0,
			"byteLength":752,
			"byteOffset":37896,
			"target":34962
		},
		{
			"buffer":0,
			"byteLength":1128,
			"byteOffset":38648,
			"target":34962
		},
		{
			"buffer":0,
			"byteLength":1128,
			"byteOffset":39776,
			"target":34962
		},
		{
			"buffer":0,
			"byteLength":752,
			"byteOffset":40904,
			"target":34962
		},
		{
			"buffer":0,
			"byteLength":324,
			"byteOffset":41656,
			"target":34963
		},
		{
			"buffer":0,
			"byteLength":1536,
			"byteOffset":41980,
			"target":34962
		},
		{
			"buffer":0,
			"byteLength":1536,
			"byteOffset":43516,
			"target":34962
		},
		{
			"buffer":0,
			"byteLength":1024,
			"byteOffset":45052,
			"target":34962
		},
		{
			"buffer":0,
			"byteLength":384,
			"byteOffset":46076,
			"target":34963
		},
		{
			"buffer":0,
			"byteLength":1128,
			"byteOffset":46460,
			"target":34962
		},
		{
			"buffer":0,
			"byteLength":1128,
			"byteOffset":47588,
			"target":34962
		},
		{
			"buffer":0,
			"byteLength":752,
			"byteOffset":48716,
			"target":34962
		}
	],
	"buffers":[
		{
			"byteLength":49468,
			"uri":"untitled1.bin"
		}
	]
}
